<mxfile host="65bd71144e">
    <diagram id="iVhk4VTsQgJHGClz_pRj" name="Page-1">
        <mxGraphModel dx="889" dy="627" grid="1" gridSize="10" guides="1" tooltips="1" connect="1" arrows="1" fold="1" page="1" pageScale="1" pageWidth="850" pageHeight="1100" background="#ffffff" math="0" shadow="0">
            <root>
                <mxCell id="0"/>
                <mxCell id="1" parent="0"/>
                <mxCell id="4" value="" style="edgeStyle=none;html=1;" edge="1" parent="1" source="2">
                    <mxGeometry relative="1" as="geometry">
                        <mxPoint x="440" y="110" as="targetPoint"/>
                    </mxGeometry>
                </mxCell>
                <mxCell id="2" value="Mulai" style="ellipse;whiteSpace=wrap;html=1;fillColor=#fa6800;strokeColor=#C73500;fontColor=#FFFFFF;" vertex="1" parent="1">
                    <mxGeometry x="380" width="120" height="80" as="geometry"/>
                </mxCell>
                <mxCell id="8" value="" style="edgeStyle=none;html=1;" edge="1" parent="1" source="5" target="6">
                    <mxGeometry relative="1" as="geometry"/>
                </mxCell>
                <mxCell id="24" style="edgeStyle=none;html=1;" edge="1" parent="1" source="5">
                    <mxGeometry relative="1" as="geometry">
                        <mxPoint x="440" y="830" as="targetPoint"/>
                        <Array as="points">
                            <mxPoint x="800" y="140"/>
                            <mxPoint x="800" y="800"/>
                            <mxPoint x="440" y="800"/>
                        </Array>
                    </mxGeometry>
                </mxCell>
                <mxCell id="5" value="for i=0 to n-2" style="shape=parallelogram;perimeter=parallelogramPerimeter;whiteSpace=wrap;html=1;fixedSize=1;fillColor=#008a00;fontColor=#ffffff;strokeColor=#005700;" vertex="1" parent="1">
                    <mxGeometry x="378" y="110" width="122" height="60" as="geometry"/>
                </mxCell>
                <mxCell id="9" value="" style="edgeStyle=none;html=1;" edge="1" parent="1" source="6" target="7">
                    <mxGeometry relative="1" as="geometry"/>
                </mxCell>
                <mxCell id="6" value="i(min) =i" style="whiteSpace=wrap;html=1;aspect=fixed;fillColor=#1ba1e2;fontColor=#ffffff;strokeColor=#006EAF;" vertex="1" parent="1">
                    <mxGeometry x="395" y="200" width="90" height="90" as="geometry"/>
                </mxCell>
                <mxCell id="12" value="" style="edgeStyle=none;html=1;" edge="1" parent="1" source="7" target="11">
                    <mxGeometry relative="1" as="geometry"/>
                </mxCell>
                <mxCell id="23" style="edgeStyle=none;html=1;entryX=0.405;entryY=0.017;entryDx=0;entryDy=0;entryPerimeter=0;" edge="1" parent="1" source="7" target="15">
                    <mxGeometry relative="1" as="geometry">
                        <mxPoint x="440" y="680" as="targetPoint"/>
                        <Array as="points">
                            <mxPoint x="760" y="360"/>
                            <mxPoint x="760" y="680"/>
                            <mxPoint x="440" y="680"/>
                        </Array>
                    </mxGeometry>
                </mxCell>
                <mxCell id="7" value="for j=i + 1 to n-1" style="rhombus;whiteSpace=wrap;html=1;fillColor=#e3c800;fontColor=#FFFFFF;strokeColor=#B09500;" vertex="1" parent="1">
                    <mxGeometry x="358" y="320" width="160" height="80" as="geometry"/>
                </mxCell>
                <mxCell id="18" style="edgeStyle=none;html=1;entryX=0.315;entryY=-0.049;entryDx=0;entryDy=0;entryPerimeter=0;" edge="1" parent="1" source="11" target="13">
                    <mxGeometry relative="1" as="geometry">
                        <Array as="points">
                            <mxPoint x="280" y="460"/>
                        </Array>
                    </mxGeometry>
                </mxCell>
                <mxCell id="20" style="edgeStyle=none;html=1;exitX=1;exitY=0.5;exitDx=0;exitDy=0;" edge="1" parent="1" source="11">
                    <mxGeometry relative="1" as="geometry">
                        <mxPoint x="450" y="620" as="targetPoint"/>
                        <Array as="points">
                            <mxPoint x="600" y="460"/>
                            <mxPoint x="600" y="620"/>
                        </Array>
                    </mxGeometry>
                </mxCell>
                <mxCell id="11" value="if&amp;nbsp; (a(j)&amp;lt;a(i(min))" style="rounded=0;whiteSpace=wrap;html=1;fillColor=#6a00ff;fontColor=#ffffff;strokeColor=#3700CC;" vertex="1" parent="1">
                    <mxGeometry x="380" y="430" width="120" height="60" as="geometry"/>
                </mxCell>
                <mxCell id="19" style="edgeStyle=none;html=1;entryX=0;entryY=0.5;entryDx=0;entryDy=0;exitX=0.345;exitY=0.991;exitDx=0;exitDy=0;exitPerimeter=0;" edge="1" parent="1" source="13" target="14">
                    <mxGeometry relative="1" as="geometry">
                        <Array as="points">
                            <mxPoint x="280" y="620"/>
                            <mxPoint x="320" y="620"/>
                        </Array>
                    </mxGeometry>
                </mxCell>
                <mxCell id="13" value="i(min)=j" style="rounded=0;whiteSpace=wrap;html=1;fillColor=#d80073;fontColor=#ffffff;strokeColor=#A50040;" vertex="1" parent="1">
                    <mxGeometry x="240" y="540" width="120" height="60" as="geometry"/>
                </mxCell>
                <mxCell id="22" style="edgeStyle=none;html=1;exitX=0.5;exitY=1;exitDx=0;exitDy=0;entryX=0;entryY=0.5;entryDx=0;entryDy=0;" edge="1" parent="1" source="14" target="7">
                    <mxGeometry relative="1" as="geometry">
                        <mxPoint x="120" y="360" as="targetPoint"/>
                        <Array as="points">
                            <mxPoint x="440" y="660"/>
                            <mxPoint x="120" y="660"/>
                            <mxPoint x="120" y="360"/>
                        </Array>
                    </mxGeometry>
                </mxCell>
                <mxCell id="14" value="" style="ellipse;whiteSpace=wrap;html=1;aspect=fixed;fillColor=#a0522d;fontColor=#ffffff;strokeColor=#6D1F00;" vertex="1" parent="1">
                    <mxGeometry x="428" y="610" width="20" height="20" as="geometry"/>
                </mxCell>
                <mxCell id="15" value="exchange&lt;br&gt;a(i) and a(i(min))" style="rounded=1;whiteSpace=wrap;html=1;fillColor=#a20025;fontColor=#ffffff;strokeColor=#6F0000;" vertex="1" parent="1">
                    <mxGeometry x="390" y="710" width="120" height="60" as="geometry"/>
                </mxCell>
                <mxCell id="17" value="Selesai" style="rounded=1;whiteSpace=wrap;html=1;fillColor=#e51400;fontColor=#ffffff;strokeColor=#B20000;" vertex="1" parent="1">
                    <mxGeometry x="395" y="830" width="90" height="30" as="geometry"/>
                </mxCell>
            </root>
        </mxGraphModel>
    </diagram>
</mxfile>